<?xml version="1.0" encoding="utf-8"?>
<!DOCTYPE svg PUBLIC "-//W3C//DTD SVG 1.0//EN" "http://www.w3.org/TR/2001/REC-SVG-20010904/DTD/svg10.dtd">
<svg version="1.0" xmlns="http://www.w3.org/2000/svg" width="2048px" height="2048px" viewBox="0 0 2048 2048" preserveAspectRatio="xMidYMid meet">
 <g fill="#fffffe">
  <path d="M0 1024 l0 -1024 1024 0 1024 0 0 1024 0 1024 -1024 0 -1024 0 0 -1024z m1149.60 751 c40.60 -9.60 66.60 -37.40 72.80 -77.60 l2.60 -15.60 304 0.20 c167.20 0.20 310.80 0.20 319.20 0 l15.40 0 -37 -63.40 c-40 -68.60 -77.40 -133 -87.60 -150.60 -3.40 -6 -31.40 -53.80 -62 -106 -30.40 -52.20 -92 -157.60 -136.40 -234 -44.60 -76.40 -88.40 -151.60 -97.60 -167 -9 -15.40 -34 -58.20 -55.40 -95 -21.60 -36.80 -51.60 -88.20 -66.60 -114 -15.20 -25.80 -54 -92.40 -86.60 -148 -32.40 -55.60 -68 -116.20 -79 -135 -37.20 -63.40 -52.60 -89.80 -90.40 -155 -20.80 -35.80 -38.40 -65.80 -39.20 -66.60 -0.80 -1 -6.60 7 -12.80 18 -6.40 10.80 -19.40 33.20 -29 49.60 -9.80 16.60 -25.40 43.60 -35 60 -9.60 16.60 -29.40 50.20 -44 75 -14.60 24.80 -48.20 82.40 -75 128 -26.60 45.60 -56.20 96.60 -66 113 -9.60 16.60 -29.80 51.20 -45 77 -60.80 103.80 -133.60 228.60 -185.60 318 -45.20 77.60 -160.20 274.60 -183.40 314 -10.60 18.20 -37.40 64 -59.60 102 -22 38 -54.60 93.80 -72.20 124 l-32.20 55 319.40 1 319.60 1 1.40 12 c2.60 23.20 11.20 40.40 28 56.40 14 13 32 22 51.60 25.20 2.80 0.40 55.80 1 118 1 93.80 0.20 115.20 -0.20 125.60 -2.60z"/>
  <path d="M903 1745.80 c-22.80 -3.80 -37 -14.40 -46.20 -34.20 l-5.80 -12.60 0 -61.60 0 -61.40 84 -41.20 c46.20 -22.60 91.60 -44.80 101 -49.20 98.20 -47 111.40 -55.20 136.60 -85 12.60 -14.80 14.80 -16.60 21 -16.60 l6.80 0 -0.80 156.60 -0.80 156.40 -4.60 11.80 c-6 15.20 -18 27.20 -33.40 33.40 l-11.80 4.80 -118 0.40 c-64.80 0 -122.60 -0.60 -128 -1.60z"/>
  <path d="M248 1641.60 c0 -4.40 4.80 -14.60 15.20 -32.60 8.40 -14.20 28 -47.60 43.40 -74 15.40 -26.40 40 -68.20 54.40 -93 14.60 -24.80 47 -80 72 -123 25.20 -42.80 72.80 -124.40 106 -181 87.20 -148.60 145.20 -248 197.60 -338 25.20 -43.40 56.40 -97 69.40 -119 13 -22 42.60 -72.80 66 -113 23.40 -40.20 58.20 -100 77.60 -133 19.20 -33 40.40 -69 46.60 -80 23.20 -39.80 21 -37 28.40 -37 6.80 0 7 0.20 38.60 54.40 17.40 30 44.20 76.20 59.80 102.60 15.60 26.40 54.20 92.60 86 147 31.60 54.40 69.40 119.20 84 144 14.40 24.80 46.80 80.20 72 123 25 43 54.80 93.80 66 113 11.20 19.20 40.60 69.20 65 111 24.40 41.80 53.80 91.80 65 111 11.20 19.20 38 65.20 59.60 102 21.40 36.80 51.40 88.20 66.40 114 15.20 25.80 40.20 68.60 55.60 95 15.40 26.40 35 60 43.60 74.40 10.40 17.40 15.80 28.60 15.80 32.60 l0 6 -290 0 -290 0 0 -25.40 c0 -14.20 0.80 -26.80 1.60 -28 1.20 -2 52.60 -2.60 241 -3 l239.40 -0.60 -58.20 -100 c-32.20 -55 -72.60 -124.20 -89.80 -154 -17.20 -29.60 -56.60 -97.20 -87.40 -150 -30.80 -52.80 -58 -99.20 -60.20 -103 -2.20 -3.80 -40.20 -69 -84.60 -145 -44.20 -75.80 -92.80 -159.20 -107.80 -185 -43 -73.80 -75 -128.60 -93.60 -160 -16.20 -27.20 -17.40 -29.80 -18.60 -43.60 -1.80 -17.60 -7.40 -27.20 -20.40 -34.60 -8 -4.60 -10 -4.80 -53.20 -5.40 -48.80 -0.80 -58.80 0.60 -69.80 9 -10.60 8 -14.40 15.80 -14.40 29.60 0 12.80 -2 16.60 -59.80 115 -35.20 59.80 -78.60 134 -94.80 162 -9.80 17 -40 68.80 -67 115 -50.40 86.40 -58.80 101 -99.80 171 -13.20 22.60 -33.60 57.20 -45 77 -11.60 19.80 -43.80 75.20 -71.60 123 -28 47.80 -62.60 107.20 -77 132 -55.40 94.40 -85 145.80 -85 146.80 0 0.60 108 1.20 240 1.20 l240 0 0 28 0 28 -289 0 -289 0 0 -6.40z"/>
  <path d="M400 1554.60 c0 -7 14.20 -32.80 71 -128.60 6.80 -11.60 35.60 -60.60 64 -109 28.40 -48.40 57.20 -97.40 64 -109 6.80 -11.60 28.40 -48.40 48 -82 19.60 -33.60 48.80 -83.40 65 -111 51 -86.80 134 -229.60 190 -326 30 -51.60 28.20 -49 35.60 -49 l6.60 0 -0.60 97.60 c-0.60 96.60 -0.60 97.40 -5.20 107.20 -6.80 14.80 -12.80 21.60 -33 37.80 -43.80 35 -62 63.80 -74.60 117.40 -3.40 13.80 -3.60 36 -4.20 288.60 l-0.80 273.40 -212.80 0 -213 0 0 -7.40z"/>
  <path d="M1222 1414 l0 -148 -104 0 -104 0 0 58 0 58 -6.40 0 c-28.60 -0.20 -65.60 -24.80 -79.40 -53 -18.80 -37.80 -15.20 -88 8.40 -119.20 20.80 -28 49.60 -41.80 86.60 -41.80 7.60 0 10.60 -0.80 11.60 -3.20 0.60 -1.80 1.20 -17.20 1.20 -34.20 l0 -31.20 14.60 1.20 c17 1.40 34.40 6.80 56.80 17.80 28.40 14 51.40 35 70.20 64 l7.40 11.60 18.60 0 18.60 0 -0.80 -93.40 c-0.80 -93.40 -0.80 -93.60 -6 -112.60 -12.60 -46.60 -32.80 -75.60 -75 -108.80 -16.60 -13.20 -24.40 -22.80 -30.80 -39 -4.60 -11 -4.60 -12.60 -5.20 -106.60 l-0.60 -95.60 7 0 c6.20 0 7.60 1 12 8.60 2.60 4.60 15.80 27.40 29.40 50.40 13.40 23.20 39 67.20 56.80 98 17.80 30.80 43 74 56 96 13 22 34.80 59.40 48.60 83 13.60 23.60 35 60.20 47.40 81 12.20 21 39.80 67.80 61 104 21.20 36.40 44.80 76.80 52.60 90 7.80 13.20 21.40 36.60 30.40 52 32 54.40 99.80 170.20 110 188 5.80 10 16 27.20 22.80 38.60 8.60 14.60 12.20 22.80 12.20 27.60 l0 6.80 -214 0 -214 0 0 -148z"/>
  <path d="M850 1467 l0 -83 6.80 0 c5.80 0 7.80 1.40 13.80 9.60 13 17.40 36.40 37.80 58.40 50.80 15.60 9.40 44.80 20.60 60.60 23.80 l12.60 2.40 -0.60 6.60 -0.60 6.80 -67.60 33 c-52.60 25.60 -69.40 33 -75.60 33 l-7.80 0 0 -83z"/>
  <path d="M972 1445.20 c-45.40 -13.60 -83.60 -45.20 -104 -86 -5.40 -11.20 -11.40 -25.60 -13.20 -32.20 -4.40 -16 -6 -68.60 -2.80 -88.80 11.20 -70.80 76 -130.80 148.60 -137.60 l13.40 -1.20 0 25 0 24.80 -13.40 2.80 c-21.40 4.20 -46.80 18 -63.60 34.80 -32.20 32 -46 71.80 -38 110.20 10.60 50.80 51.60 91.80 103.60 103.20 l11.40 2.40 0 23.80 0 23.60 -13.40 -0.20 c-8 0 -19.80 -1.80 -28.60 -4.60z"/>
  <path d="M1036 1426.20 l0 -23.80 15 -3.40 c28.60 -6.40 57.40 -24.80 74.20 -47.60 14.60 -19.80 20.20 -33 25.80 -59.80 l1 -5.60 23.20 0 c27.20 0 26.60 -0.60 23.20 22 -6.20 43.20 -32.20 86 -67.20 110.80 -26.60 19 -59 31.20 -82.60 31.20 l-12.60 0 0 -23.80z"/>
  <path d="M1035.60 1356.60 c-0.60 -14.40 -0.60 -36 0 -48.20 l1 -22.40 46.80 0 47 0 -0.80 13.80 c-2.20 39.60 -40.40 77.20 -82.80 81.60 l-10.20 1.20 -1 -26z"/>
  <path d="M850 1089 l0 -79 8 0 c4.60 0 11 1.60 14.60 3.40 3.60 1.80 32.60 14.80 64.40 28.80 l58 25.60 0.60 6.80 0.60 6.80 -13.60 3.60 c-19.20 5.20 -45.20 16.60 -61.80 27.40 -16.60 10.80 -39.80 32 -50 45.80 -6.20 8.40 -8.20 9.80 -14 9.80 l-6.80 0 0 -79z"/>
  <path d="M1167 1145.20 c-20 -20.60 -33.60 -31 -56 -43 -6.60 -3.40 -66.40 -30.60 -133 -60 l-121 -53.80 0 -9.80 c0.20 -7 2.20 -14 7.20 -24.60 11 -23 24 -38.40 48.60 -58.20 39 -31 50.60 -52.60 53 -98.80 l1.20 -22 33.60 -0.60 33.40 -0.40 0 -10 0 -10 -34 0 -34 0 0.40 -71.40 0.60 -71.60 35 -0.40 c19.20 -0.20 45 0.20 57.40 0.80 l22.20 1.20 0.80 101.20 c1 109.60 1 110.60 12.60 135.20 8 16.60 17.40 27.60 39.80 45.40 26 21 37.20 33.80 48.40 56.60 14.60 29.40 15.20 34.40 16.20 130.60 l1 84.40 -6.60 -0.20 c-5.80 0 -9.60 -2.80 -26.80 -20.60z"/>
  <path d="M966 561.20 l0 -28.60 15.40 -1.40 c19.20 -1.60 90 -1.60 96.20 0 4.40 1.20 4.40 1.80 4.40 30 l0 28.80 -58 0 -58 0 0 -28.80z"/>
 </g>
 <g fill="#c39a21">
  <path d="M900 1782.60 c-19.60 -3.20 -37.60 -12.20 -51.60 -25.20 -16.80 -16 -25.40 -33.20 -28 -56.40 l-1.40 -12 -323.40 -0.60 -323.20 -0.40 33 -56.60 c18.20 -31 52.40 -89.60 76.20 -130.40 23.60 -40.60 51.80 -88.80 62.40 -107 23.40 -39.60 138.80 -237.20 183.40 -314 52 -89.40 124.80 -214.20 185.60 -318 15.20 -25.80 35.40 -60.40 45 -77 9.80 -16.40 39.40 -67.40 66 -113 26.80 -45.60 60.40 -103.20 75 -128 14.60 -24.80 34.40 -58.40 44 -75 16.80 -29 36.60 -63 67 -114.80 7.80 -13.40 15 -23.80 16 -23 0.80 1 19.80 33.40 42 71.80 40.60 69.80 55.60 95.60 93.40 160 11 18.80 46.60 79.40 79 135 32.60 55.60 71.40 122.20 86.60 148 15 25.80 45 77.20 66.60 114 21.40 36.80 46.40 79.60 55.40 95 9.20 15.40 53 90.60 97.60 167 44.40 76.40 106 181.80 136.40 234 30.60 52.20 58.60 100 62 106 12.40 21.80 43 74.20 85.40 147 23.80 40.80 43.60 75.20 44 76.80 0.60 2.40 -47.40 2.60 -321.40 2.40 l-322 -0.60 -2.60 15.80 c-6.20 40.20 -32.20 68 -72.80 77.60 -10.40 2.40 -32.60 3 -131.60 2.60 -65.40 0 -121.20 -0.60 -124 -1z m254.80 -46.40 c15.40 -6.20 27.40 -18.20 33.20 -33.40 l4.60 -11.80 0.80 -151 c0.80 -132 0.60 -150.60 -2 -148 -1.60 1.60 -8.40 9.40 -15 17.20 -23.20 27.20 -37.80 36.20 -134.40 82.40 -9.40 4.40 -54.80 26.60 -101 49.20 l-84 41.20 0 55.40 0 55.60 5.80 12.60 c9.20 19.80 23.40 30.40 46.20 34.20 5.40 1 60.40 1.60 122 1.60 l112 -0.40 11.80 -4.80z m-334.80 -116.20 l0 -22 -244 -0.40 -243.80 -0.60 29.20 -50 c16 -27.40 43.20 -74.20 60.60 -104 35.60 -60.80 109.80 -188 144 -247 12.40 -21.40 34.80 -59.60 49.60 -85 57.20 -97.40 145.40 -248.60 169.80 -291 16.20 -28 59.60 -102.20 94.80 -162 57.80 -98.40 59.80 -102.20 59.80 -115 0 -13.80 3.80 -21.60 14.40 -29.60 11.20 -8.60 20.60 -9.80 75.60 -9 49.80 0.60 51.20 0.80 59.40 5.40 13 7.40 18.60 17 20.40 34.60 1.20 13.80 2.40 16.40 18.60 43.60 18.60 31.40 50.60 86.20 93.60 160 15 25.80 63.60 109.20 107.80 185 44.40 76 82.40 141.20 84.60 145 2.20 3.80 29.40 50.20 60.20 103 30.80 52.80 70.20 120.40 87.40 150 17.20 29.80 58.60 100.60 91.80 157.60 33.20 56.80 60.80 104.80 61.40 106.40 1 2.60 -26.80 3 -241.80 3 -219.80 0 -243 0.40 -244.20 3.20 -0.60 1.80 -1.20 11.60 -1.20 22 l0 18.80 284 0 284 0 -9.20 -15.40 c-5.20 -8.60 -24.80 -42.20 -43.80 -74.60 -19 -32.40 -46.80 -80.20 -62 -106 -15 -25.80 -45 -77.20 -66.40 -114 -21.60 -36.80 -48.40 -82.80 -59.60 -102 -11.20 -19.20 -40.60 -69.20 -65 -111 -24.40 -41.80 -53.80 -91.80 -65 -111 -11.20 -19.20 -41 -70 -66 -113 -25.20 -42.80 -57.60 -98.20 -72 -123 -14.60 -24.80 -52.40 -89.60 -84 -144 -31.80 -54.40 -70.40 -120.60 -86 -147 -15.60 -26.40 -42.40 -72.60 -59.80 -102.40 -17.40 -30 -32.40 -54 -33.40 -53.60 -0.80 0.60 -4.40 6.20 -8 12.60 -6 10.40 -47.40 81.60 -81.40 139.40 -7.60 13.20 -33 56.80 -56.40 97 -23.40 40.20 -53 91 -66 113 -13 22 -44.20 75.60 -69.40 119 -52.40 90 -110.40 189.40 -197.60 338 -33.20 56.60 -80.80 138.20 -106 181 -25 43 -54.40 92.80 -65 111 -10.80 18.20 -24.40 41.60 -30.40 52 -6 10.40 -26.20 45.20 -45 77 -18.60 32 -36.40 62.20 -39.40 67.60 l-5.60 9.40 283.20 0 283.20 0 0 -22z m0.60 -337.40 c0.60 -252.60 0.80 -274.80 4.20 -288.60 12.60 -53.60 30.80 -82.40 74.60 -117.40 20.20 -16.20 26.20 -23 33 -37.80 4.60 -9.60 4.60 -10.80 5.20 -101.80 l0.40 -92 -6 9.60 c-3.40 5.20 -14 23.20 -23.80 40 -46.60 80.40 -134.20 230.80 -187.20 321.40 -14.60 24.80 -34.20 58 -43.40 74 -67.20 114.80 -78.80 134.60 -153.60 262 -88.20 150.20 -116.20 198.20 -117.40 201.20 -0.80 2.40 27.60 2.80 206.20 2.80 l207 0 0.80 -273.40z m823.40 272.60 c0 -0.40 -5.60 -10.20 -12.20 -21.60 -6.80 -11.40 -17 -28.60 -22.80 -38.60 -10.20 -17.80 -78 -133.60 -110 -188 -9 -15.40 -22.60 -38.80 -30.40 -52 -7.80 -13.20 -31.40 -53.60 -52.60 -90 -21.20 -36.20 -48.80 -83 -61 -104 -12.40 -20.80 -33.80 -57.40 -47.40 -81 -13.80 -23.60 -35.60 -61 -48.60 -83 -13 -22 -38.20 -65.20 -56 -96 -26.80 -46.60 -60.60 -104.40 -86.80 -149 l-5.20 -9 -0.60 15 c-0.40 8.20 -0.40 48.80 0 90 0.60 72.40 0.80 75.40 5.20 86.20 6.40 16.20 14 25.80 30.80 39 42.20 33 62.20 62.20 75 108.80 l5.40 19 0.60 99.60 0.80 99.40 -24.60 0 -24.60 0 -7.40 -11.60 c-11.60 -18 -25.40 -33.40 -40.20 -45 -21.20 -17 -56.60 -33 -80.40 -36.40 l-9 -1.40 0 31 c0 17 -0.60 32.40 -1.20 34.20 -1 2.40 -4 3.20 -11.60 3.20 -37 0 -65.80 13.80 -86.60 41.80 -30 39.80 -25.40 97.60 10.20 131.80 12 11.60 30.20 22.40 42.20 25.20 3.40 0.80 7.60 1.80 9.60 2.40 3.20 1 3.40 -2.60 3.40 -57 l0 -58.20 110 0 110 0 0 148 0 148 208 0 c114.40 0 208 -0.40 208 -0.80z m-716.80 -44.20 c37 -18 67.60 -33.20 68 -33.60 0.60 -0.40 -4.80 -2 -11.60 -3.20 -44.20 -8.60 -91.80 -39.20 -122 -78.20 l-5.40 -7 -0.20 77.60 c0 47.40 0.80 77.40 1.80 77.40 1.20 0 32.20 -14.80 69.40 -33z m80.80 -84.60 l0 -17.80 -11.40 -2.40 c-65.80 -14.40 -110.20 -73 -106 -139.60 2.20 -33 15.40 -61 40.40 -85.80 16.80 -16.80 42.20 -30.60 63.60 -34.80 l13.40 -2.80 0 -18.60 0 -18.80 -7.40 1.20 c-50 8.40 -91.40 35.20 -118.60 76.60 -20 30.40 -27.20 59 -25.40 100.80 1.20 30 4.40 42.60 17.40 68.80 20.40 40.80 58.60 72.40 104 86 8.20 2.60 18.40 4.60 22.60 4.60 l7.40 0.20 0 -17.60z m61.60 13.60 c51 -14.20 94.20 -53 113.40 -102 5.60 -14.40 11.60 -41.20 10 -44.20 -0.80 -1 -8.80 -1.80 -18 -1.80 -16.80 0 -17 0 -18 5.60 -5.60 26.80 -11.20 40 -25.80 59.80 -16.80 22.80 -45.60 41.20 -74.20 47.60 l-15 3.40 0 17.80 0 17.80 6.60 0 c3.60 0 13 -1.80 21 -4z m-6.20 -70 c21.20 -7.40 41 -25.40 51.80 -47.20 4 -7.80 7.60 -18 8.20 -22.40 l1.20 -8.40 -41.20 0 -41.20 0 -0.60 19.60 c-0.40 10.60 -0.20 29.60 0 41.80 l0.80 22.60 5.20 -1.20 c3 -0.80 10 -2.80 15.80 -4.80z m-179.40 -238.20 c25.60 -25.40 54.20 -41.60 94 -53.40 10.40 -3.20 12.20 -4.20 9 -5.40 -2.20 -1 -31 -13.80 -64 -28.40 -33 -14.80 -61.60 -27.40 -63.40 -28 -3.40 -1 -3.60 3.40 -3.60 72.60 l0.20 73.80 5.20 -7 c3 -3.80 13 -14.80 22.60 -24.20z m309.40 -55.80 c-1.20 -83.40 -2.20 -90.40 -16.20 -119 -11.20 -22.80 -22.40 -35.60 -48.40 -56.60 -22.40 -17.80 -31.80 -28.80 -39.80 -45.40 -11.60 -24.60 -11.60 -25.60 -12.60 -135.60 l-0.80 -101.40 -13.20 -0.20 c-7.40 -0.20 -30.40 -0.40 -51.40 -0.60 l-38 -0.20 -0.60 65.60 -0.40 65.40 34 0 34 0 0 16 0 16 -33.40 0.40 -33.60 0.60 -1.20 22 c-2.40 46.20 -14 67.80 -53 98.80 -24.40 19.60 -37.60 35.20 -48 57.20 -11.80 24.60 -24.40 16 113.20 77.20 66.60 29.40 126.40 56.60 133 60 22.20 12 35.80 22.40 56 42.80 18.40 18.60 20 19.80 20.80 15 0.20 -2.80 0.20 -37.80 -0.40 -78z m-117.40 -514.80 l0 -22.80 -5.40 -1.20 c-7.80 -1.40 -53.40 -1.40 -78 0 l-20.60 1.20 0 22.80 0 22.80 52 0 52 0 0 -22.80z"/>
 </g>
</svg>